<?xml version="1.0" encoding="UTF-8" standalone="no"?>
<svg id="svg44646" xmlnsRdf="http://www.w3.org/1999/02/22-rdf-syntax-ns#" xmlns="http://www.w3.org/2000/svg" height="767.82" viewBox="0 0 1003.9012 767.82129" width="700" version="1.1" xmlnsCc="http://creativecommons.org/ns#" xmlnsDc="http://purl.org/dc/elements/1.1/">
<path id="path44656" d="m846.18 767.47c-38.838-5.0658-61.791-15.611-77.587-35.644-18.24-23.134 48.082-53.595 80.587-37.012 16.27 8.3001 21.487 2.8632 11.112-11.579-8.1767-11.381-8.6604-14.4-3.1118-19.421 4.616-4.1775 5.1598-7 1.3486-7-3.5561 0-10.77-8.0244-11.686-13-0.43894-2.3827-2.3392-4.0201-4.6997-4.0497-6.5953-0.0826-12.852-3.0056-14.991-7.0039-1.1134-2.0805-5.9455-5.5172-10.738-7.6371-13.951-6.171-19.353-22.541-12.08-36.605l3.1532-6.0976-10.931-10.303c-6.0121-5.6667-11.488-12.158-12.168-14.425-3.6822-12.271-35.81-18.2-53.707-9.9111-13.398 6.2051-13.288 6.0053-5.5 10.033 5.5349 2.8622 8.6524 11 4.214 11-3.7783 0-4.0624 6.5993-0.5029 11.682 5.3967 7.7054 7.4865 25.984 3.1605 27.644-1.8014 0.69126-3.9528 0.1606-4.7809-1.1792-1.972-3.1908-14.339-5.9803-28.091-6.3357-15.774-0.40774-22.847-2.3022-23.622-6.3265-0.80638-4.1872 9.8615-4.882 18.992-1.2369 11.538 4.6062 34.331 1.3134 27.893-4.0295-1.8412-1.5281-3.3546-1.6876-4.1286-0.43528-3.4357 5.5591-41.899-2.2372-44.502-9.0202-1.9464-5.0722 0.7479-5.2819 12.305-0.95794 6.1672 2.3074 15.454 4.1593 20.638 4.1153l9.425-0.08-5.5-2.9838c-6.5352-3.5454-7.4131-10.73-1.5-12.277 5.4782-1.4326 5.0207-5.3573-1-8.5795-8.506-4.5523-6.2619-9.0404 7-14 10.292-3.849 15.688-8 10.399-8-0.88042 0-6.644-4.4949-12.808-9.9887-6.1639-5.4938-15.119-11.782-19.899-13.975-4.7807-2.1923-10.241-5.1013-12.134-6.4643-2.776-1.9989-5.1001-1.8636-12.016 0.69948-4.7156 1.7477-11.484 2.7506-15.04 2.2286-40.033-5.8756-43.799 43.502-4.374 57.357 12.648 4.4451 15.892 10.143 5.7733 10.143-5.3876 0-6.0095 0.46038-3.9592 2.9308 1.5693 1.8909 1.9595 5.7298 1.0996 10.819-1.1573 6.8503-0.78698 8.0615 2.8146 9.2046 9.6651 3.0676 9.6545 13.43-0.018 16.802-6.9376 2.4185-7.6639 7.2884-1.3397 8.9832 15.372 4.1195 65.793-3.2261 80.233-11.689 11.062-6.483 10.784-6.5456 15.321 3.4492 5.2814 11.635 4.9232 15.125-1.9579 19.074-8.5685 4.9176-9.4283 11.288-2.8122 20.835 6.9397 10.014 8.8146 27.731 3.9334 37.17-1.7694 3.4218-3.2172 8.8559-3.2172 12.076 0 12.598-51.088 18.159-59.87 6.516-3.4839-4.6187-4.0361-4.7178-12.728-2.2843-4.9972 1.3991-9.8411 2.0771-10.764 1.5066-0.92312-0.57052-6.4875 0.0458-12.365 1.3696-66.128 14.893-162.36-70.789-130.04-115.79 22.774-31.712 51.665-27.71 83.106 11.513 5.9463 7.4182 13.437 14.845 16.647 16.505 4.1578 2.1501 6.2123 5.0281 7.1473 10.012 1.3065 6.9641 3.8179 9.1428 5.3255 4.62 0.51524-1.5457 2.2502-0.9165 4.9687 1.8021l4.177 4.177 0.96146-6.302c0.68332-4.4789-0.1274-7.3371-2.802-9.88-5.274-5.0139-4.705-8.9378 2.2365-15.422 7.2859-6.806 7.3793-8.0794 1-13.626-5.197-4.5188-6.4438-9.2455-3-11.374 2.9045-1.7951 2.4507-5-0.70796-5-4.7005-0.00008-13.291-9.5597-13.291-14.791 0-2.7401-1.6469-6.1581-3.6598-7.5955-29.677-21.192-6.2014-63.613 35.204-63.613 8.7255 0 10.426-0.81786 18.227-8.7663 10.684-10.887 9.1659-12.258-13.271-11.988-20.325 0.24502-20.511-0.4174-6.5-23.246 10.675-17.393 11.798-19.982 6.9087-15.924-1.7002 1.411-6.1788 2.4494-9.9524 2.3076-6.1763-0.2322-7.4053 0.68408-12.313 9.1794-7.3721 12.762-16.503 16.836-22.24 9.9231-3.8535-4.6431 10.546-35.797 18.097-39.152 3.82-1.6978 1.2471-6.3545-3-5.4297-2.475 0.53892-16.2 3.3382-30.5 6.2205-23.271 4.6906-55.165 12.829-66 16.84-7.3754 2.7309-18.058 5.9657-40.103 12.144-24.367 6.8288-26.091 7.8055-23.221 13.156 41.824 77.952 11.966 195.25-61.967 243.44-96.048 62.607-192.38 52.492-276.45-29.029-6.7402-6.5352-16.595-16.066-21.9-21.18-9.7154-9.366-24.376-32.112-27.325-42.394-0.87519-3.0516-2.656-7.5378-3.9573-9.9694-3.2923-6.1518-8.0731-25.163-8.0731-32.104 0-16.548-3.9447-18.433-21-10.033-18.985 9.3509-21.267 7.4247-24.875-21-4.4307-34.905-8.332-50.21-19.558-76.724-9.6406-22.77-10.049-27.182-2.5401-27.46 11.862-0.4379 22.415-4.9107 21.334-9.0427-1.0063-3.8482 10.35-17.774 14.495-17.774 0.94749 0 1.0045-3.1844 0.12672-7.0764-4.6794-20.748 14.067-33.301 36.031-24.128 1.959 0.8182 3.709-0.32206 5-3.2579 3.0573-6.9527 18.329-14.107 26.744-12.528 8.3629 1.5689 19.805-2.983 30.97-12.321 9.3519-7.8213 22.867-11.25 31.5-7.9915 5.1181 1.9319 7.1335 1.6075 13.78-2.2177 10.557-6.0758 18.659-5.853 23.391 0.64338l3.7325 5.1238 2.6052-22.286c2.9575-25.301 2.92-25.438-5.7311-20.964-8.5715 4.4325-14.049 2.5762-8.9676-3.0389 1.9702-2.1771 4.8817-3.9583 6.47-3.9583s5.7238-1.2235 9.19-2.7189c13.922-6.0061 17.652-7.2811 21.302-7.2811 12.799 0 13.747-2.2138 13.605-31.761-0.0722-14.981 0.46214-31.964 1.1872-37.739 1.5701-12.506 1.8882-12.418-11.313-3.1143-21.126 14.89-27.101 18.594-36.448 22.601-9.4097 4.0335-9.5251 4.1939-8.3063 11.552 2.0474 12.361-0.93311 56.462-3.8158 56.462-4.1832 0-4.8517-5.1743-3.7317-28.886 0.88436-18.724 0.49051-23.954-2.1945-29.147-3.6076-6.9764-2.7836-11.967 1.9761-11.967 10.017 0 33.043-14.56 31.622-19.995-2.4206-9.2562 1.5112-26.133 6.6318-28.466 7.8911-3.5954 9.9974 0.19514 7.0952 12.768-3.6203 15.684-0.55828 16.112 13.919 1.945 16.072-15.727 20.228-16.617 14.592-3.1272-2.6015 6.2263-3.1093 14.928-2.7864 47.744 0.21722 22.072 0.2988 41.09 0.1814 42.263-0.1174 1.1732-6.0719 3.2975-13.232 4.7207-15.391 3.0592-15.061 2.6647-15.85 18.953-0.7742 15.983 0.29592 17.953 7.6732 14.126 8.4587-4.3884 16.94-3.6015 24.662 2.2882l6.8447 5.2207 6.4448-7.036c8.8034-9.6111 20.361-12.715 30.081-8.0798 6.873 3.2775 7.2948 3.2527 11.647-0.68536 6.3342-5.7319 17.041-8.9104 24.99-7.4191 5.1606 0.96814 7.7814 0.32628 11.137-2.7276 8.959-8.1535 21.695-11.573 31.009-8.3258 4.7203 1.6455 7.123 1.2584 12.733-2.0515 6.392-3.7714 7.698-3.8765 17.28-1.3909 8.7064 2.2584 10.366 2.2555 10.366-0.018 0-1.4889 1.8-4.507 4-6.707 7.3869-7.3869 30-4.2642 30 4.1429 0 1.0214 2.2947 1.8571 5.0993 1.8571 7.64 0 16.447 5.3207 19.918 12.034 3.4378 6.6479 6.1414 7.3328 12.199 3.0899 3.8119-2.67 16.126-9.6176 29.36-16.566 10.308-5.4114 10.933-3.6773 10.019 27.769-0.89292 30.697 0.38166 36.691 6.8479 32.204 9.5339-6.6158 45.74-22.736 63.557-28.297l20-6.2429 6-12.293c5.9549-12.2 7.5496-13.584 23.568-20.454 17.496-7.5029 47.312-3.2765 52.709 7.4715 5.7906 11.531 16.723 17.358 16.723 8.9121 0-2.4041 1.8846-6.3772 4.188-8.829l4.188-4.4579-4.188-2.2413c-6.8108-3.645-5.3499-11.167 3.312-17.053 8.102-5.5055 12.047-23.048 5.1832-23.048-8.6311 0-4.0947-11.925 6.4375-16.923l7.2591-3.4447-7.1994-6.5944c-9.395-8.6055-14.432-20.093-10.78-24.587 2.2315-2.7464 2.0928-3.0096-0.9792-1.8577-1.9685 0.73812-5.1185 0.53642-7-0.44822s-7.6229-3.2666-12.759-5.071c-25.321-8.8964-15.7-31.087 12.114-27.94 9.562 1.0818 11.839 0.7545 12.837-1.8452 1.8131-4.725-1.1509-5.6569-23.337-7.3373-29.055-2.2007-36.077-6.5463-26.782-16.576 4.0378-4.3572 37.753-18.129 48.465-19.798 2.3586-0.36729 4.7243-3.0338 5.8529-6.597 14.283-45.096 67.532-79.426 91.878-59.236 9.4209 7.8126 2.7211-7.809-8.6901-20.262-13.369-14.59-13.269-14.324-8.7691-23.344 2.2411-4.4924 3.8694-5.8379 5.3152-4.392 1.4458 1.4458 1.318 3.0078-0.41724 5.0986-2.828 3.4075-0.1388 8.0912 12.683 22.09 8.0374 8.7748 8.9197 8.4329 14.023-5.4343 1.9228-5.225 4.7716-9.5 6.3306-9.5 3.6154 0 3.6178 4.684 0.006 11.668-3.3875 6.5508-6.2103 20.332-4.1647 20.332 0.79856 0 5.6237-2.1235 10.723-4.7188 5.0989-2.5954 11.521-5.6093 14.271-6.6976s10.195-4.3648 16.544-7.2812c13.272-6.0959 16.566-6.5045 18.196-2.257 1.4303 3.7274-5.3996 10.955-10.352 10.955-5.6476 0-28.388 8.1577-28.388 10.184 0 0.99901 3.5003 1.8164 7.7784 1.8164 9.5507 0 17.1 5.3837 15.048 10.731-1.1143 2.9039-2.7482 3.4389-7.6224 2.496-19.435-3.7595-18.485-3.7183-14.704-0.6379 1.925 1.5684 3.5 3.7975 3.5 4.9534 0 1.156 2.5689 4.2633 5.7087 6.9052 11.36 9.5589 14.042 19.762 6.4315 24.465-1.1771 0.72748-2.1402 3.8667-2.1402 6.976 0 3.1094-1.3445 8.2312-2.9877 11.382-1.6432 3.1507-2.9932 7.6141-3 9.9186-0.006 2.3045-1.8414 5.8453-4.0769 7.8684-8.4719 7.667-12.487 16.692-11.148 25.06 1.1163 6.9808 0.8006 7.8811-2.7634 7.8811-4.3464 0-4.5938 0.66871-2.7681 7.4808 0.93266 3.4799 2.2181 4.2255 5.7545 3.338 6.6915-1.6795 8.0945 2.7046 3.0494 9.5286-2.4264 3.2819-4.1074 6.1641-3.7356 6.4049 0.37186 0.2408 3.1849 1.5161 6.2511 2.8341 4.7009 2.0206 5.2497 3.0042 3.5 6.2735-2.8437 5.3135-2.7497 5.5372 2.925 6.9615 2.75 0.69022 5 2.5281 5 4.0843 0 1.5561 7.2526 9.414 16.117 17.462 44.309 40.228 66.553 128.67 49.207 195.63-2.9918 11.55-6.6833 26.4-8.2033 33s-4.1884 14.7-5.9296 18c-5.3755 10.187-4.0876 13.382 10.752 26.668 21.385 19.146 32.513 61.594 13.571 51.767-5.5843-2.8972-31.178-1.5911-44.514 2.2716-6.4546 1.8695-8.8079 3.9567-12.182 10.805-6.2009 12.585-22.643 23.523-26.539 17.655-2.5823-3.8891-4.6151-4.1675-30.429-4.1675h-27.662l-2.0829 7.5c-5.6867 20.477 1.5942 29.282 21.895 26.477 15.512-2.1429 20.749 5.7729 5.7969 8.7632-8.7149 1.743-5.2615 5.1618 6.5228 6.4576 7.2073 0.79254 9.604 0.20104 12.6-3.1098 2.6304-2.9065 6.1782-4.0885 12.272-4.0885 9.8165 0 13.262 3.1528 6.4365 5.8901l-4.6285 1.8563 4.6315 0.1268c2.5473 0.0698 6.4063-0.82308 8.5755-1.984 5.2015-2.7838 12.2-0.47798 11.385 3.7512-0.59962 3.1136-5.0596 4.6095-22.856 7.6662-6.8067 1.1691-11.177-2.5326-6.4925-5.4996 1.9176-1.2146 0.87718-1.7551-3.4197-1.7764-9.2496-0.0458-9.9121 12.852-0.75428 14.683 5.2781 1.0556 5.9302 1.9914 5.9302 8.5099v7.3238l13.221-1.0613c22.928-1.8404 55.423-20.154 42.089-23.72-7.1797-1.9201-11.414-7.3196-10.792-13.761 0.43016-4.4539-0.41964-5.1159-7.8445-6.1115-10.291-1.3798-15.674-5.278-12.526-9.0713 3.4452-4.1512 0.3049-6.8223-8.0207-6.8223-13.004 0-13.993-4.5898-2.7696-12.856 12.234-9.0109 17.45-8.687 13.788 0.85626-0.74344 1.9372 0.91742 4.1737 4.6882 6.3131 3.2848 1.8637 6.1298 5.3546 6.5031 7.9796 0.40396 2.8406 2.2287 4.9006 4.6636 5.2648 12.069 1.8053 12.747 2.3093 13.38 9.9505 0.59446 7.1805 0.9754 7.5395 9.16 8.6318 33.246 4.4371-16.562 43.547-55.795 43.811-9.5764 0.0646-14.303 5.2014-8.6694 9.4211 5.0712 3.7982 23.537 1.9816 37.766-3.7152 5.5871-2.2369 12.862-5.0998 16.167-6.362 16.646-6.3573 28.008-18.359 24.963-26.368-1.7953-4.7219-1.5607-5.1463 2.5244-4.5661 3.1156 0.44246 5.192 2.7695 6.7374 7.5508 1.5784 4.8836 3.9255 7.4581 8 8.775 38.936 12.585 49.205 74.27 13.73 82.472-7.68 1.7756-15.989 4.1935-18.464 5.3731-4.8786 2.3251-13.342-0.76422-17.819-6.5047-2.712-3.4768-11.569 2.774-9.9411 7.0159 1.7101 4.4564-8.6569 14.958-14.766 14.958-3.1554 0-6.2414 0.8161-6.8579 1.8136-0.61646 0.99746-9.8946 2.3644-20.618 3.0376-10.723 0.67322-24.447 1.531-30.497 1.9062-6.05 0.37518-13.7 0.32996-17-0.1004zm28.183-20.64c1.3113-1.3113 4.0447-1.2055 8.0659 0.31238 4.9017 1.8502 9.1562 1.5725 21.917-1.4304 15.599-3.6709 19.459-6.1011 26.926-16.95 2.6486-3.8481 5.6625-4.7166 21-6.0512 42.016-3.6561 57.697-30.975 26.916-46.893-2.9151-1.5075-6.527-4.219-8.0263-6.0256-3.5161-4.2366-12.054-2.7326-29.283 5.1586-7.0399 3.2243-13.574 5.8624-14.52 5.8624-0.94616 0-4.7079 1.2562-8.3593 2.7915l-6.639 2.7915 7.9094 3.7243c9.7759 4.6031 8.6642 7.7973-2.5655 7.3711-7.6603-0.29074-8.2851 0.033-6.5 3.3685 3.6373 6.7964-1.7817 8.5844-9.1428 3.0167-5.3033-4.0112-6.2256-3.7919-6.0411 1.4364 0.1358 3.8497-0.7348 4.4154-6.0252 3.9144-10.047-0.95146-12.058 3.8332-4.8527 11.546 3.3202 3.5543 6.0367 8.1954 6.0367 10.314 0 5.4005-6.2 7.3674-8.8723 2.8146-1.1702-1.9936-4.1527-6.1091-6.6277-9.1456-6.3241-7.7587-5.8057-15.103 1.5-21.25 3.3-2.7768 6-5.8687 6-6.8709 0-3.6243-7.4069-1.7113-11.903 3.074-2.5299 2.6929-7.1868 5.4644-10.349 6.1589-7.1181 1.5634-7.0998 2.5106 0.1868 9.6582 5.4753 5.3709 14.064 20.8 14.064 25.265 0 5.075-7.4237 1.3866-11.026-5.4782-2.1646-4.125-4.3994-7.95-4.9662-8.5-0.56678-0.55-3.6184-4.4697-6.7814-8.7103-19.031-25.516-75.05-22.001-75.089 4.7103-0.016 10.634 34.054 27.194 42.795 20.802 2.9927-2.1883 4.5444-2.1406 9.2329 0.28392 7.1719 3.7087 9.8343 3.6855 9.8343-0.0856 0-3.7679 0.8212-3.747 9.2108 0.23406 5.0386 2.391 7.5064 2.6605 9.4663 1.0339 1.9597-1.6264 3.6514-1.4433 6.487 0.70232 4.5587 3.4494 7.3271 3.7385 10.019 1.0462zm-541.98-12.18c9.3017-2.2899 22.961-7.1764 30.354-10.859 7.3932-3.6826 18.025-8.49 23.627-10.683 69.487-27.205 117.75-140.87 90.57-213.29-2.064-5.5-3.7531-11.571-3.7537-13.492-0.002-9.8739-20.729-46.262-36.468-64.027-52.918-59.727-125.69-78.091-212.53-53.634-10.564 2.9752-39.797 18.515-50 26.579-18.304 14.467-25.304 21.019-31.973 29.925-4.3852 5.8562-8.438 11.098-9.0062 11.648-1.4748 1.4275-14.021 22.099-14.021 23.101 0 0.45938-2.4969 6.0246-5.5486 12.367-22.086 45.903-20.503 107.2 4.1474 160.53 20.138 43.571 76.414 89.975 121.4 100.1 6.05 1.362 13.7 3.165 17 4.0066 13.366 3.4087 58.606 2.0595 76.204-2.2725zm-87.204-15.568c-29.172-8.425-45.918-17.537-72.167-39.271-42.236-34.97-71.657-118.09-58.001-163.86 15.294-51.263 33.567-81.491 63.765-105.49 117.89-93.681 288.4-10.211 288.4 141.18 0 112.67-113.97 198.63-222 167.44zm94.975-16.228c1.356-2.194-4.24-21.414-12.822-44.041-3.1293-8.25-7.7612-21.75-10.293-30s-5.2293-15.9-5.9944-17-1.8495-5.15-2.4098-9-2.1725-12.607-3.5827-19.461c-2.1917-10.651-2.1383-12.974 0.36782-16 12.472-15.058 5.2504-34.596-14.51-39.257-4.4957-1.0603-5.4767-2.6415-6.6772-10.763-1.7633-11.928-8.6192-41.125-11.318-48.198-1.1166-2.9267-2.7762-8.9213-3.6881-13.321-0.91186-4.4-3.5211-14.835-5.7984-23.188-2.2772-8.3536-4.7274-20.183-5.4448-26.287-1.4888-12.667-3.6687-17.495-6.5508-14.508-2.8353 2.9386 3.8553 35.938 15.811 77.983 13.363 46.995 14.434 55 7.357 55-7.1941 0-11.421 1.9558-11.421 5.2843 0 2.2757 0.84796 2.4026 4.1713 0.62398 5.8054-3.1069 6.3667-1.6843 2.7503 6.9707-2.304 5.5141-2.6167 8.8967-1.1842 12.807l1.9467 5.3139 0.1578-5.055c0.67312-21.55 28.024-24.567 35.769-3.945 2.4291 6.4675 0.2205 12.103-7.1857 18.335-4.9457 4.1615-5.5891 5.656-3.8044 8.8369 2.1276 3.7921 5.2268 13.94 14.302 46.828 2.5801 9.35 6.6476 23.75 9.0389 32 5.5242 19.058 10.038 35.597 11.462 42 1.8831 8.4658 6.7533 12.566 9.5503 8.0406zm14.164-9.1978c-1.8466-7.3574 6.3969-11.993 15.484-8.7067 7.3697 2.6649 34.423-14.717 42.797-27.498 8.1085-12.375-15.431-24.15-26.778-13.395-11.678 11.069-22.659 19.508-33.291 25.584-6.0194 3.4402-9.2605 6.5248-8.6173 8.201 0.56706 1.4777 1.6511 6.1257 2.4091 10.329 0.75794 4.2031 2.2627 8.7571 3.3439 10.12 2.9671 3.7401 5.9964 0.72182 4.6519-4.6351zm-140.46-6.4436c-0.76992-2.9441 5.759-16.617 17.381-36.399 9.9043-16.859 37.061-60.197 40.397-64.467 6.3908-8.1812 1.987-9.6469-4.6054-1.5327-5.7496 7.0768-22.274 33.458-31.319 50-2.7066 4.95-7.8046 13.05-11.329 18-13.317 18.704-19.774 31.908-17.15 35.07 3.4305 4.1335 7.7673 3.6944 6.6258-0.67078zm34.006-12.399c18.021 0 16.164 3.4974 22.372-42.13 2.629-19.321 5.4403-36.871 6.2474-39 1.3437-3.544 1.1964-3.6019-1.7473-0.68656-3.9998 3.9613-11.561 17.884-11.561 21.287 0 1.3913-0.79746 2.5296-1.7721 2.5296-0.97466 0-3.2904 2.925-5.146 6.5-3.6707 7.0719-5.8528 10.886-12.316 21.528-2.3288 3.8345-6.9026 11.922-10.164 17.972-3.2615 6.05-7.2062 13.052-8.7659 15.561-2.4594 3.9556-2.447 4.8029 0.0938 6.3836 2.206 1.3724 3.5406 0.3693 5.4035-4.061 2.423-5.7626 2.7796-5.8835 17.356-5.8835zm-42.761-6.4352c0.0396-0.78934 7.7219-13.142 17.072-27.45 9.35-14.308 17-26.547 17-27.198 0-0.65098 2.25-4.1335 5-7.7389s5-7.2498 5-8.0986 3.1307-5.8081 6.9571-11.021c3.8264-5.2126 6.4123-10.022 5.7464-10.688-2.4302-2.4302-18.684 7.979-18.717 11.987-0.008 0.90358-3.3751 3.8929-7.4834 6.6429-4.1084 2.75-18.853 16.475-32.765 30.5-25.166 25.37-29.132 28.05-33.579 22.691-4.4284-5.3358 0.19858-12.651 21.092-33.345 21.434-21.229 23.218-25.189 8.235-18.272-4.6671 2.1547-16.136 5.9046-25.486 8.3331-19.25 4.9999-30 9.2144-30 11.762 0 10.206 31.094 49.792 47.932 61.023 4.7353 3.1583 13.672-2.67 13.996-9.1275zm102.57-3.8964c6.5496-2.5647 6.4295-1.2506 1.6025-17.527-9.7499-32.875-12.104-41.453-12.133-44.198-0.0362-3.5308-4.7176-17.358-6.4702-19.111-1.8419-1.8419-3.161 9.1705-4.4844 37.435-0.65068 13.898-1.9088 29.859-2.7957 35.47-2.1107 13.352 4.7287 15.586 24.28 7.93zm39.52-21.84c13.52-9.2289 14.244-11.206 6.4774-17.707-3.025-2.5322-12.897-11.872-21.939-20.755-20.578-20.219-20.898-19.755-9.6124 13.962 5.0948 15.222 9.6373 28.801 10.094 30.176 1.1887 3.5757 1.7219 3.3737 14.979-5.6757zm75.977-1.6298c0-1.478-13.674-11.598-25.395-18.794-8.5367-5.2412-0.71456 5.5675 8.895 12.291 11.397 7.9745 16.5 9.9855 16.5 6.5026zm15.707-21.694c12.514-26.072 17.846-55.542 15.387-85.055-1.6447-19.745-1.8-19.864-19.094-14.693l-9 2.6911 0.66408 18.779c0.93618 26.473-7.3841 56.862-19.258 70.341-3.689 4.1873-2.7824 5.3739 11.594 15.175 12.116 8.2604 12.301 8.1927 19.707-7.2377zm-66.04 1.7212c-0.36666-0.97836-6.0102-6.1151-12.541-11.415-12.941-10.502-13.087-9.194-0.49146 4.4166 7.1813 7.76 14.864 11.886 13.033 6.9984zm14.137-5.4582c-2.851-3.4352-30.758-22.763-32.868-22.763-1.7777 0 18.611 18.341 24.846 22.352 7.1653 4.6083 11.697 4.8406 8.0211 0.41114zm-221.81-16.82c9.35-2.4732 20.544-6.1708 24.876-8.2168 4.3316-2.046 8.9537-3.72 10.271-3.72 1.3177 0 4.9736-1.3445 8.1243-2.9877 9.4925-4.9507 1.3923-3.4391-26.146 4.8791-30.607 9.245-41.125 13.39-41.125 16.206 0 1.319 1.2409 1.3864 3.5 0.19 1.925-1.0195 11.15-3.8771 20.5-6.3504zm232.42-7.4368c6.1694-19.132 6.5852-18.492-12.04-18.54-21.281-0.0548-41.769-3.307-51.984-8.2516-15.177-7.3472-10.935-2.8114 11.125 11.895 11.812 7.8744 26.427 17.891 32.477 22.259 14.592 10.536 14.658 10.512 20.422-7.3628zm-223.61-7.8354c17.496-5.8299 35.046-11.186 39-11.903 3.9542-0.71652 10.529-2.9811 14.61-5.0324 4.0812-2.0513 9.0312-3.7582 11-3.7932s5.3267-1.385 7.4619-3 5.5102-2.9364 7.5-2.9364c6.6006 0 3.7746-3.6106-11.633-14.863-17.633-12.877-17.887-12.95-19.362-5.5732-1.2117 6.0584-9.1938 10.932-25.387 15.502-8.6566 2.4427-22.632 7.6056-46 16.994-6.05 2.4306-13.381 4.3744-16.291 4.3194-5.058-0.0956-5.2442 0.26812-4.2284 8.2604 1.4756 11.611 4.0301 16.033 8.1728 14.148 1.8406-0.8376 17.661-6.2928 35.157-12.123zm75.689-10.387c11.413-5.0469 15.633-9.6936 7-7.7089-9.5291 2.1908-35.5 12.337-35.5 13.869 0 2.7347 16.403-0.81052 28.5-6.1598zm-100.94-23.26c17.272-8.7756 57.42-22.939 65.43-23.083 3.5059-0.0628 3.2572-0.69134-1.9603-4.9544-9.1283-7.4584-16.406-9.9438-21.625-7.385-2.4198 1.1864-16.55 5.9458-31.4 10.576-32.726 10.205-32 9.6811-32 23.08 0 12.984-0.45124 12.947 21.555 1.766zm149.25 5.7899c2.2558-5.8784-3.2602-13.801-9.6087-13.801-8.0406 0-10.873 5.1352-6.5073 11.798 3.9515 6.0307 14.087 7.2903 16.116 2.0028zm110.78-14.46c0.6589-16.079 0.4308-16.271-12.427-10.413-4.7408 2.1597-15.716 5.3862-24.39 7.1701-43.384 8.9224-50.056 12.792-22.671 13.15 31.447 0.41038 44.652 1.3248 49.9 3.4556 7.9583 3.2311 8.9652 1.8278 9.5876-13.362zm-69.721-2.2853c6.1232-2.1699 19.683-6.1609 30.133-8.8688 49.146-12.735 78-22.165 78-25.49 0-3.0633-12.841 0.1198-54 13.385-15.95 5.1407-31.7 10.032-35 10.869-17.396 4.4147-28.924 8.5478-31.077 11.142-3.1805 3.8323-1.3521 3.6733 11.944-1.0385zm-88.867-3.3492c-3.3-1.7239-6.9035-4.2569-8.0077-5.6289s-4.2542-3.1556-7-3.9635c-3.2284-0.9499-1.459 1.0283 5.0077 5.5988 5.5 3.8872 11.35 7.0813 13 7.0978 1.65 0.016 0.3-1.3803-3-3.1042zm72.1-2.3454c1.045-0.90192 8.65-3.7332 16.9-6.2918 21.757-6.7477 38.42-12.237 43-14.166 2.2-0.92652 9.175-2.7768 15.5-4.1118 9.8008-2.0686 16.753-7.7907 9.4655-7.7907-1.119 0-4.5413-5.175-7.6052-11.5-3.2339-6.676-6.785-11.382-8.4655-11.218-9.6523 0.94066-36.17 7.0369-42.972 9.8791-3.6845 1.5395-7.9457 2.3207-9.4694 1.736-2.5935-0.99522-18.494 18.729-16.614 20.609 0.9887 0.98868 18.203-4.8143 25.016-8.4327 23.018-12.226 35.074-12.672 33.745-1.2487-0.50326 4.326-2.0664 5.5048-9.6011 7.2402-4.95 1.1401-12.485 3.6168-16.744 5.5039-4.2593 1.8871-8.4165 3.431-9.2382 3.431-2.6471 0-29.921 9.2372-31.277 10.593-3.1813 3.1813 4.8977 8.7551 8.3595 5.7673zm-169.12-15.51c10.438-3.6565 22.363-7.22 26.5-7.9188 12.005-2.0283 8.3016-6.247-19.828-22.585-17.857-10.372-17.977-10.366-23.04 1.0795-8.4612 19.128-11.851 39.956-6.111 37.543 1.925-0.80902 12.041-4.4626 22.479-8.1191zm157.24-2.3379c4.4329-5.8397 3.2558-10.226-1.2824-4.7784-3.9286 4.7157-5.0707 8.2784-2.6539 8.2784 0.70372 0 2.4751-1.575 3.9364-3.5zm-4.1812-13c2.7393-5.775 7.2071-14.1 9.9284-18.5s7.2115-12.05 9.9782-17 7.0618-12.221 9.5445-16.159c2.4828-3.9373 7.6641-12.341 11.514-18.676 3.85-6.3343 8.5092-13.913 10.354-16.841 10.811-17.162-26.42-31.173-75.354-28.359-22.595 1.2994-22.201-0.58792-9.8201 47.051 5.1437 19.791 9.8054 39.134 10.359 42.984 0.55398 3.85 3.1538 10.15 5.7774 14s5.6853 10.375 6.8038 14.5c2.7335 10.081 5.0056 9.4565 10.914-3zm-15.92-17.05c-3.6255-3.6255 10.644-12.315 20.379-12.41 4.6811-0.0456 6.2255 4.6536 2.3222 7.066-3.7799 2.3361-21.531 6.5147-22.702 5.344zm-71.72 16.944c0.87966-1.4312 6.0994-4.0916 11.599-5.912 5.5-1.8205 13.94-4.7348 18.756-6.4763 8.0977-2.9282 9.0374-2.9116 12.5 0.22202 4.2992 3.8907 5.6389-3.7377 1.8895-10.759-5.7815-10.826-14.329-45.652-17.902-72.935-1.8308-13.982-2.2936-14.494-10.61-11.738-27.817 9.2196-77.375 48.404-83.124 65.725-0.44383 1.3372 19.733 15.306 45.959 31.819 5.5414 3.4891 11.496 7.7641 13.232 9.5 3.8369 3.8369 5.6038 3.9641 7.6997 0.55414zm112.88-21.629c5.7387-9.2228 12.917-21.441 15.952-27.152 3.035-5.7107 7.027-12.686 8.871-15.5 1.9558-2.9849 2.4428-5.1169 1.1688-5.1169-1.2011 0-3.4217 2.025-4.9345 4.5s-10.029 16.2-18.924 30.5c-14.346 23.062-25.4 46.824-15.708 33.769 1.7275-2.3271 7.8362-11.777 13.575-21zm103.92 15.958c10.111-3.3806 10.466-4.3315 5.5795-14.962-12.196-26.531-34.048-52.569-53.667-63.944-6.4077-3.7153-6.6528-3.7183-8.8521-0.1102-1.2441 2.041-4.8183 6.991-7.9426 11-3.1244 4.009-6.9841 9.989-8.5771 13.289s-4.5761 9.15-6.629 13c-4.7674 8.9407-3.017 9.4183 12.347 3.3693 25.459-10.024 51.356-13.816 49.149-7.1972-0.74094 2.2228-46.18 15.03-60.66 17.097-6.0246 0.86016-9.1749 2.7314-12.516 7.4346-4.3179 6.0779-2.9097 9.821 2.1345 5.674 1.338-1.1 7.8328-3.5008 14.433-5.3351 6.6-1.8343 21.74-6.5987 33.644-10.588 16.461-5.5158 22.448-6.7457 25-5.136 4.7767 3.0131 4.1502 7.5678-1.1445 8.3198-5.3713 0.76284-5.2846-0.4622-1.1725 16.575 3.6695 15.203 5.1449 16.103 18.874 11.513zm-282.01-25.98c-3.0744-3.3-4.809-3.9244-6.4217-2.3117s-0.66433 3.0208 3.511 5.2128c7.2765 3.8202 8.2596 2.8403 2.9106-2.9012zm219.81-61.237c0-5.5044-3.8029-1.9498-8.7653 8.1929-7.1298 14.573-6.5723 15.886 1.7653 4.1591 3.85-5.4151 7-10.974 7-12.352zm596.43 324.68c4.7134-1.5497 11.485-3.4189 15.047-4.1539 6.2854-1.2967 9.9768-4.2413 7.9091-6.309-0.55794-0.55792-3.5849 0.31484-6.7266 1.9395-3.1417 1.6246-10.2 3.5582-15.686 4.2968-13.12 1.7666-15.476 2.6139-13.982 5.0302 1.6355 2.6462 3.2378 2.5504 13.439-0.80354zm-292.62-34.32c0.49448-0.49448-0.83524-2.1755-2.9549-3.7355-5.4014-3.9754 1.2058-6.6483 8.3676-3.3851 2.7316 1.2446 7.8492 2.2915 11.372 2.3265 3.5232 0.035 8.1529 1.385 10.288 3 14.448 10.928 35.635 2.0627 36.616-15.322 1.1967-21.214-5.2882-28.362-21.363-23.546-5.8887 1.7643-8.8305 1.5679-14.976-1-4.475-1.8698-13.563-3.232-21.904-3.2834-7.8407-0.0482-17.692-1.3132-21.891-2.8109-8.1238-2.8973-7.6368-3.1938-10.489 6.3865-0.51178 1.719-2.1522 1.9591-5.3081 0.77698-16.116-6.0366-18.511-6.3834-20.971-3.0351-1.4404 1.9605-3.7475 2.7564-5.7559 1.9857-3.3684-1.2926-3.3347-3.4688 0.29922-19.296 0.95072-4.1407 0.121-5.6202-4.4865-8-3.1091-1.6059-6.8289-4.4948-8.2663-6.4198-5.8889-7.8867-18.294 1.1853-26.152 19.125-3.7569 8.5774-8.5336 19.199-9.8374 21.875-0.40196 0.825 0.69416 1.5 2.4358 1.5 1.7417 0 3.1667 0.74842 3.1667 1.6632 0 1.9408 18.619 14.337 21.534 14.337 1.0866 0 3.0961 1.35 4.4655 3s4.2112 3 6.3153 3c2.104 0 6.0346 1.4475 8.7347 3.2167 4.5107 2.9556 5.0094 2.9556 6.1436 0 1.7424-4.5407 5.804-3.9915 9.2882 1.2559 2.5402 3.8258 3.4342 4.087 6.1823 1.8063 2.7275-2.2637 4.0393-2.0159 8.6882 1.6409l5.4756 4.3071 1.6668-4.5059 1.6668-4.5059 4.8834 5.2666c4.475 4.8261 13.093 6.0476 16.764 2.3761zm0.19106-14.621c-3.85-0.6802-7-2.3945-7-3.8097 0-1.4151-1.35-3.4088-3-4.4304-2.6424-1.636-2.5987-2.5214 0.3663-7.4271 3.494-5.7808 31.348-9.6556 35.996-5.0074 3.7093 3.7093-7.7408 12.422-16.767 12.758-7.3638 0.2742-7.6641 0.43566-2.0955 1.1267 4.8181 0.59792 6.5 1.8089 6.5 4.6799 0 4.0756-1.5511 4.3094-14 2.11zm-76.667-23.57c-2.7546-2.7546-1.23-14.14 2.3241-17.357 7.7949-7.0543 8.4363-3.7397 3.1333 16.19-0.72418 2.7216-3.3427 3.2814-5.4574 1.1667zm-26.333 21.577c-15.109-9.4213-39.15-38.533-46.034-55.744-4.036-10.09-7.876-11.382-5.9468-2 4.1884 20.369 40.523 60.939 54.981 61.391 1.65 0.0516 0.3-1.5897-3-3.6474zm-9-25.187c0-6.9048 10.893-26.774 19.463-35.5 10.979-11.179 10.115-15.645-5.1106-26.417-32.61-23.071-58.757-5.1462-41.126 28.194 12.517 23.67 26.773 41.627 26.773 33.723zm144.56-17.424c6.3572-1.2122 12.035-2.9755 12.618-3.9183 0.58272-0.94284 2.7067-1.7143 4.7199-1.7143 4.8892 0 13.08-6.8013 11.422-9.4842-0.88908-1.4386-4.6438-0.86816-11.544 1.7538-13.845 5.2608-37.124 8.6573-58.274 8.5024-23.773-0.174-23.297 2.0807 1.5 7.1046 8.934 1.81 22.263 1.0539 39.559-2.2441zm-614.26-47.3c-2.7133-7.0444-6.0501-36.481-5.7064-50.342l0.27274-11-5.9315 0.5056c-15.304 1.3045-43.627 12.36-44.619 17.416-1.4164 7.2163 2.9786 7.534 17.295 1.2505 21.949-9.6335 25.044-8.519 27.293 9.8277 1.6799 13.707 11.704 46.307 12.712 41.342 0.40832-2.012-0.18348-6.062-1.3151-9zm797.15-44.51c7.0197-2.6689 41.896-8.1274 52.05-8.1464 4.675-0.008 8.5-0.93996 8.5-2.0693 0-5.89-13.104-25.323-21.197-31.435-15.022-11.345-17.499-19.09-10.476-32.758 2.3797-4.6312 5.447-13.37 6.8164-19.42s4.9791-20 8.0218-31c11.998-43.377 6.5281-100.53-13.303-139-3.1189-6.05-7.8519-16.034-10.518-22.187-11.602-26.778-13.879-26.26-105.85 24.058-22.776 12.461-16.758 13.867 6.8349 1.5971 11.071-5.7578 28.212-14.68 38.09-19.827 34.696-18.078 36.98-18.221 39.22-2.4484 1.2492 8.796 1.958 9.8718 6.8781 10.439 7.3185 0.84434 6.9104 4.5063-1.0273 9.2176-7.113 4.2218-3.2773 7.3186 4.1449 3.3464 2.113-1.1309 4.3785-1.5194 5.0344-0.8635 2.1535 2.1535-2.7255 8.6667-6.4921 8.6667-2.0266 0-4.886 1.4474-6.3541 3.2164-3.9843 4.8008 2.6216 9.277 9.7123 6.5811 3.233-1.2292 5.8187-1.2462 7.0188-0.046 2.4831 2.4831 0.0842 6.2486-3.9807 6.2486-3.7384 0-16.571 9.3452-16.571 12.068 0 1.0252 2.925 0.23452 6.5-1.7571 10.188-5.6759 19.237-8.3534 20.628-6.1034 1.6201 2.6214-2.8266 7.7929-6.7008 7.7929-5.3547 0-18.427 6.6578-18.427 9.3849 0 3.2348 2.8944 3.1915 12.348-0.1848 4.0413-1.4433 8.4475-1.9447 9.7914-1.1141 3.7882 2.3413 0.5269 7.9139-4.6316 7.9139-5.0986 0-13.508 5.1048-13.508 8.2 0 1.0852 3.375 1.7092 7.5 1.3866 8.3307-0.65152 11.216 4.8843 3.1452 6.0335-5.1441 0.73246-9.5099 5.3628-7.7466 8.2159 0.81458 1.318 2.9868 1.3482 6.3024 0.0876 7.6187-2.8966 11.18-2.3787 10.43 1.5168-0.39638 2.0582-3.8701 4.3398-8.6466 5.6791-4.9639 1.3918-8.2496 3.6031-8.6858 5.8456-0.72086 3.7053-0.59514 3.702 12.202-0.3291 7.405-2.3326 3.4677 5.5741-4.5671 9.1713-8.2189 3.6797-13.755 9.1623-13.869 13.736-0.0732 2.9265-8.9704 17.326-14.803 23.957-4.3167 4.908-13.261 6.1295-13.261 1.8112 0-1.4789 2.3027-5.3039 5.117-8.5 16.474-18.709 23.395-60.033 12.93-77.199-5.6992-9.3478-5.2507-17.502 1.2477-22.684 5.772-4.6024 6.2188-3.6589-6.5829-13.899-7.845-6.275-35.544-1.5313-38.237 6.5484-0.941 2.823 11.112 5.2403 14.108 2.8293 1.3299-1.0703 5.3431-2.5714 8.9181-3.3358 7.4245-1.5875 8.8282 1.4401 2.5 5.3921-2.3958 1.4962-4 4.6641-4 7.8989 0 7.7366-2.322 8.3094-18.121 4.4695-15.882-3.8601-23.147-1.6593-12.573 3.8087 13.374 6.9158 35.32 37.472 34.324 47.79-1.2622 13.082-15.295 6.8275-20.013-8.9194-1.5267-5.0955-6.7719-12.119-15.399-20.62-13.369-13.174-21.89-18.145-10.956-6.3919 9.3302 10.029 18.738 26.256 18.738 32.322 0 8.8875-5.7382 5.6239-15.511-8.8218-18.126-26.794-27.568-34.768-38.658-32.648-3.1665 0.6053-6.0616-0.21856-7.6983-2.1907-1.4428-1.7384-3.4131-3.1608-4.3784-3.1608-3.0872 0-1.8813 5.2659 2.013 8.7901 10.08 9.1221 10.051 33.544-0.063 52.771-7.8877 14.995-7.5632 15.314 18.591 18.262 12.487 1.4075 27.654 3.9146 33.704 5.5713s15.273 3.7663 20.495 4.6879c11.723 2.0691 13.505 3.1295 13.505 8.0365 0 4.7628-3.3352 4.8914-19.08 0.73564-13.402-3.5374-24.853-5.6094-54.01-9.7724-30.761-4.392-35.597-7.6307-28.46-19.059 3.5464-5.6787-2.9905-10.41-12.45-9.0114-23.15 3.4228-38 7.8413-38 11.307 0 1.9599-5.625 9.282-12.5 16.271-6.875 6.9894-13.841 15.341-15.481 18.559-1.6396 3.2183-5.9437 10.579-9.5647 16.357-10.212 16.294-10.212 16.495-0.0312 16.495 22.364 0 43.684 11.92 56.978 31.857 4.715 7.0713 10.604 15.051 13.086 17.733 9.9087 10.706 52.228 27.542 83.513 33.224 8.1648 1.4828 66.06-0.93578 71.45-2.9849zm-28.45-73.062c-4.4-1.6234-16.807-3.4979-27.571-4.1655-10.764-0.66768-20.105-2.0767-20.756-3.1311-2.3453-3.7948 4.5906-5.5222 18.823-4.6878 7.9726 0.46742 14.918 0.1662 15.434-0.6692 1.6945-2.7417-14.113-6.113-28.662-6.113-11.349 0-14.268-0.61368-14.268-3 0-3.3547 39.398-4.577 43.1-1.3372 1.045 0.91456 5.725 2.7507 10.4 4.0803 7.0706 2.0109 8.5 3.2531 8.5 7.3867 0 3.4602 1.5183 5.5465 5 6.8702 5.6826 2.1605 6.811 8.0729 1.5 7.8591-1.925-0.0776-7.1-1.4691-11.5-3.0925zm-34.62-29.186c-0.89892-0.89892-11.027-1.8472-22.507-2.1073-22.969-0.52032-28.364-3.8485-8.8728-5.4728 18.74-1.5617 7.9667-4.1678-20.699-5.0072-26.33-0.77098-27.477-1.0434-25.55-6.0659 1.0361-2.6999 3.3473-3.0473 13.747-2.0658 6.8759 0.6489 19.252 1.639 27.502 2.2003 26.732 1.8187 39.439 4.7843 42.858 10.002 2.1461 3.2754 5.3468 4.8786 10.608 5.3135 4.1833 0.3458 7.0896 1.5123 6.5343 2.6228-1.2031 2.4063-21.3 2.8999-23.62 0.5801zm-777.35 86.67c12.314-5.9193 30.176-10.952 35.003-9.862 1.5011 0.3388 3.0736-0.959 3.4946-2.884 0.9998-4.5717-2.6129-4.4747-18.091 0.48594-6.8403 2.1923-15.587 4.9896-19.437 6.2163-8.6995 2.7719-16 7.2634-16 9.8438 0 2.9641 2.0209 2.4532 15.03-3.8001zm7.9702-15.784c11-4.3867 22.979-8.6186 26.62-9.4043 6.7033-1.4466 10.38-6.8342 10.38-15.21 0-7.5211 19.095-46.246 30.004-60.848 11.407-15.268 44.037-46.261 55.709-52.913 5.6589-3.2252 0.16052-8.9914-9.2434-9.6936-11.449-0.85484-23.479 10.599-21.608 20.573 2.0029 10.676-3.7936 13.461-7.8434 3.7688-6.3576-15.216-25.884-13.296-35.52 3.4927-1.9038 3.3171-4.3698 5.4697-5.48 4.7835-3.9172-2.421-1.9371-8.4819 5.1578-15.787 8.129-8.3702 6.921-13.224-3.2911-13.224-16.785 0-22.584 11.12-12.054 23.114 3.3927 3.8641 6.1686 9.2443 6.1686 11.956 0 6.1439 3.2125 6.2933 20 0.9304 14.964-4.7804 16-4.8497 16-1.0704 0 4.743-16.126 11.416-39 16.137-20.46 4.2234-39.842 9.1692-43.473 11.093-1.9101 1.0121-5.2427 1.8401-7.4059 1.8401s-6.0004 0.81598-8.5271 1.8133c-2.5268 0.9973-9.8634 2.8829-16.304 4.1903-7.1342 1.4483-10.99 3.0966-9.8682 4.2185 1.1219 1.1219 12.468-0.90616 29.038-5.1904 29.248-7.5622 43.54-8.9464 43.54-4.2169 0 1.9337-3.287 3.1322-10.5 3.8285-26.668 2.5743-57.5 11.356-57.429 16.357 0.15397 10.921 4.4496 12.171 22.412 6.5197 21.371-6.7238 26.779-7.9404 36.706-8.2579 4.5038-0.144 9.7543-1.5597 11.668-3.1459 2.5572-2.12 4.3616-2.3272 6.8112-0.78202 5.8504 3.6903 3.8171 7.5883-4.6676 8.9484-32.325 5.1816-60.828 12.942-62.379 16.984-2.0389 5.3134 0.92401 5.1437 19.726-1.1296 25.089-8.3711 43.919-12.188 47.22-9.5711 4.6288 3.6692 1.3981 6.0906-11.683 8.7563-11.616 2.3672-17.313 3.8626-42.22 11.083-8.335 2.4163-9.6477 5.3769-8.1755 18.438 1.1786 10.457 0.93698 10.28 7.861 5.7434 9.8608-6.4611 50.895-18.874 53.967-16.325 3.7266 3.0928-0.90863 6.2078-14.316 9.6204-25.804 6.5681-43 14.397-43 19.576 0 1.633 1.125 2.5214 2.5 1.9742 1.375-0.54718 11.5-4.584 22.5-8.9707zm-25.695-17.536c2.1687-5.6515 41.174-18.926 55.612-18.926 7.0712 0 6.2526 6.7016-0.93716 7.6724-2.7388 0.3698-15.938 3.7448-29.332 7.5-28.251 7.9208-26.863 7.7151-25.342 3.7537zm-15.305-39.028c0-3.3601 12.421-7.6513 37.548-12.972 12.86-2.7233 24.748-5.3751 26.417-5.893 4.2901-1.3309 9.5394 2.2628 7.0059 4.7963-1.0976 1.0976-11.44 3.8775-22.983 6.1776-11.543 2.3-25.567 5.4895-31.163 7.0876-12.058 3.4431-16.824 3.6708-16.824 0.80366zm466.46-15.785c6.8981-2.138 20.642-6.298 30.542-9.2445s19.8-6.0944 22-6.9954c5.1493-2.1088 50.386-12.971 66-15.847 21.163-3.8988 31.722-6.3466 44-10.2 17.629-5.5327 71.26-17.763 91.225-20.803 9.9522-1.5156 15.098-7.4547 12.604-14.547-2.3719-6.7443-11.305-10.389-16.899-6.8954-8.1041 5.0611-11.273 0.0658-4.0851-6.4392 14.407-13.038 29.208-4.0182 29.032 17.692-0.1284 15.781 1.6976 19.065 5.374 9.6676 4.4987-11.499 4.4005-25.892-0.24204-35.482-4.7789-9.8719-8.0086-11.627-8.0086-4.3511 0 2.5667-0.5922 5.2589-1.316 5.9827-2.0219 2.0219-6.684-2.6918-6.684-6.758 0-1.9904-2.925-5.6214-6.5-8.0688s-9.8115-7.5794-13.859-11.404c-8.4623-7.9972-13.373-7.6382-12.265 0.89658 1.1187 8.6166-1.94 11.96-8.7588 9.5753-5.1314-1.7949-5.7043-3.0006-6.6178-13.928-2.2888-27.38-45.146-2.1907-47.42 27.871l-0.76904 10.166 4.9515-10.231c4.5732-9.4494 9.3266-14.014 11.907-11.433 0.58312 0.58312-0.6507 4.3461-2.7418 8.3622-5.2417 10.067-6.2043 32.88-1.5824 37.503 4.337 4.338 10.781 2.2543 8.4066-2.7181-4.553-9.5334 0.96554-32.965 8.4393-35.833 4.9482-1.8988 5.4835 0.75022 1.9407 9.6044-5.613 14.028-2.1597 26.686 6.652 24.382 3.9842-1.0419 4.3325-2.0305 3.1602-8.9693-0.9453-5.5952-0.40412-9.1924 1.9155-12.733 4.6196-7.0505 7.1408-6.103 7.1408 2.6835 0 11.855 3.1964 14.684 13.437 11.891 9.9319-2.7089 12.89-0.93626 7.4519 4.4657-4.8754 4.8431-47.091 16.843-77.889 22.141-6.6 1.1352-14.7 2.8724-18 3.8604-5.8079 1.7388-12.708 3.4165-49.195 11.96-9.457 2.2145-21.075 5.3953-25.817 7.0685-17.593 6.2072-25.347-22.042-26.49-96.504-0.26458-17.244 1.1833-16.982-24.867-4.5085-11.477 5.4953-23.29 10.537-26.25 11.205-2.96 0.6672-14.382 4.2058-25.382 7.8636s-27.262 8.3966-36.137 10.531c-8.8753 2.1341-17.875 4.7797-20 5.8792-2.1247 1.0994-9.9381 3.1205-17.363 4.4912-16.841 3.109-16.788 3.4287 2.0543 12.363 30.333 14.383 62.418 41.662 78.807 67.004 9.2174 14.253 9.8348 14.446 28.097 8.7856zm-25.125-15.446c-3.0073-3.0073-0.61528-4.5644 14.167-9.2221 32.305-10.179 40.5-11.295 40.5-5.5149 0 5.1114-4.8098 7.5376-18.154 9.1573-5.9653 0.72408-15.284 2.5757-20.709 4.1148-11.054 3.1362-13.871 3.3973-15.804 1.4649zm-11.333-12.073c0-3.6798 4.043-5.2364 42-16.171 6.05-1.7428 11.855-3.901 12.9-4.7959 3.5152-3.0104-6.2436-1.6754-16.133 2.207-15.672 6.1524-45.255 12.478-47.563 10.17-3.2886-3.2886 0.89914-5.7105 15.87-9.1785 23.315-5.4008 48.357-13.712 43.484-14.432-2.4427-0.36102-17.198 2.122-32.791 5.5178-15.592 3.3958-28.78 5.7437-29.306 5.2177-3.2233-3.2233 3.0907-7.0081 16.87-10.112 8.6172-1.9414 24.559-5.7534 35.427-8.471 19.903-4.9771 26.684-4.1052 21.033 2.7043-3.4974 4.2141-0.95416 13.68 3.8663 14.389 15.484 2.2796-1.6782 11.259-35.659 18.656-8.2735 1.8011-13.228 3.0961-25.5 6.6655-3.5091 1.0206-4.5 0.4994-4.5-2.3668zm-20-37.524c0-4.07 5.1443-6.3683 18-8.0416 14.969-1.9485 35.306-6.6851 43.624-10.16 8.7293-3.6473 16.376-3.7002 16.376-0.1132 0 3.774-3.857 6.5296-11 7.859-3.3 0.61414-10.95 2.5843-17 4.378-10.139 3.006-41.681 8.9825-47.5 9.0003-1.375 0.004-2.5-1.3107-2.5-2.922zm-3.5176-12.576c-2.9442-0.98138-0.8204-6.4941 2.5019-6.4941 2.8799 0 15.797-3.8174 41.481-12.259 9.6061-3.1573 19.281-5.7406 21.5-5.7406 4.392 0 5.654 5.6467 1.5343 6.8647-1.375 0.40654-12.85 3.845-25.5 7.641-28.276 8.485-38.586 10.966-41.518 9.9885zm213.83 68.006c7.7963-11.393 7.8834-11.483 21.371-22.096 5.8738-4.6221 9.3019-8.4038 7.618-8.4038-1.6838 0-3.6178 0.9-4.2976 2-0.67984 1.1-2.984 2-5.1203 2-5.1674 0-17.692 13.148-24.58 25.803-6.9943 12.851-3.6289 13.319 5.0088 0.69666zm-594.71-6.9c3.9032-3.9032 2.7504-7.6-2.37-7.6-2.881 0-6.0674 1.9801-8.0461 5-3.687 5.627 5.1766 7.8395 10.416 2.6zm32.602-7.7649c16.554-5.2714 18.477-7.8876 12.501-17.008-9.8047-14.964-30.611-11.014-33.884 6.4321-2.3808 12.691 4.3247 16.007 21.382 10.576zm490.8-15.073c6.6-1.6683 13.8-3.7887 16-4.712 3.7334-1.5669 12.725-3.8415 32-8.0951 37.777-8.3367 37.761-8.3282 35.038-17.824-1.7381-6.0603-21.9-28.131-25.698-28.131-1.9396 0-23.674 7.6081-31.34 10.971-3.3 1.4475-7.8 3.1064-10 3.6865-7.3404 1.9355-43.209 14.885-44.328 16.004-1.1827 1.1827 2.4965 18.693 5.8819 27.992 1.6326 4.4847 2.9248 5.3937 6.2518 4.3975 2.3066-0.69066 9.5939-2.6207 16.194-4.289zm-519-1.7098c0-1.4916 4.1767-6.3885 9.2816-10.882l9.2816-8.17h-7.1185c-5.9249 0-7.8165 1.1295-11.282 6.7361-4.2591 6.8914-5.805 18.515-2.1631 16.264 1.1-0.67984 2-2.4565 2-3.9481zm102.51-31.61c2.8017-4.276 11.714-9.7169 20.25-12.363 3.6308-1.1254 3.638-1.3176 0.19002-5.1275-6.4979-7.1801-24.257-4.6233-26.26 3.7807-1.924 8.0725-4.4564 10.21-10.632 8.975-5.7115-1.1423-14.07 1.9776-14.07 5.2519 0 1.0038 4.725 2.1557 10.5 2.5597s11.971 0.90104 13.77 1.1045c1.7985 0.20348 4.6121-1.6783 6.2524-4.1817zm55.694-5.9366c11.463-5.2587 11.898-6.3835 3.5862-9.2808-7.0146-2.4453-12.457-0.48226-15.757 5.6835-4.9228 9.1983-1.9522 10.076 12.171 3.5973zm-13.496-10.377c7.7892-7.3462 9.2005-11.134 4.1483-11.134-7.9028 0-14.789 6.265-14.838 13.5-0.0419 6.1571 2.1724 5.6671 10.69-2.3657zm39.28-7.1072c0-5.8761 7.7109-14.027 13.27-14.027 1.5017 0 2.7303-1.4106 2.7303-3.1348 0-3.7717-6.3485-2.4109-14 3.0009-5.1587 3.6486-9.1744 24.332-4.1174 21.206 1.1645-0.71974 2.1174-3.8902 2.1174-7.0454zm120 3.019c0-6.7555-8.1361-11.775-18.432-11.371-17.393 0.68152-18.048 8.51-1.0676 12.754 18.028 4.5053 19.5 4.401 19.5-1.3821zm-94.5-0.3706c13.337-1.3379 15.285-3.5348 8.5449-9.6349-7.4995-6.787-29.826 0.4308-29.982 9.6926-0.0492 2.9229 0.91392 3.4579 4.4372 2.4647 2.475-0.69772 10.125-1.8328 17-2.5225zm124.5-4.9568c21.634-5.5172 24.246-7.6564 16.659-13.645-12.135-9.5786-32.614-3.0095-35.622 11.427-1.6136 7.7441-2.3603 7.6567 18.963 2.2187zm-71.504-0.20808c2.289-6.8669-2.9632-17.354-9.8252-19.619-15.525-5.1237-31.524 8.9704-21.528 18.966 3.9837 3.9837 30.062 4.5273 31.354 0.65348zm333.47-6.7664c0.1012-14.055 25.863-40.657 39.488-40.775 5.346-0.0462 9.2669-3.1798 7.5185-6.0088-5.1316-8.3032-43.531 4.1463-49.473 16.039-5.2416 10.492-4.5396 46.004 0.7446 37.668 0.93008-1.4672 1.7048-4.5828 1.7217-6.9235zm-314.72-5.475c4.2633-1.5019 10.676-2.2998 14.251-1.773 8.237 1.2137 8.8395-3.3657 1.2303-9.3511-10.625-8.3574-31.281-1.3325-27.852 9.472 1.6352 5.1522 2.2149 5.2296 12.37 1.6521zm98.388-0.34674c12.63-3.7506 13.702-8.9871 2.9945-14.623-14.739-7.7579-30.524 0.5983-22.255 11.782 5.0699 6.8575 5.5161 6.9233 19.261 2.8415zm-60.672-6.8834c1.9715-2.1785 6.6209-4.5305 10.332-5.2267 10.277-1.9279 11.159-11.618 1.2832-14.097-13.647-3.4251-26.131 5.5251-22.605 16.207 2.6404 8.0004 5.7677 8.8872 10.99 3.1165zm96.535-4.3887c17.583-6.1752 14.432-17.431-4.9221-17.584-12.757-0.1008-18.75 6.9776-14.257 16.839 2.8305 6.2122 3.533 6.2395 19.179 0.74448zm289.5-3.6504c2.2-3.2937 4.675-5.9911 5.5-5.9942 0.825-0.004 1.5-1.8773 1.5-4.1647 0-3.6477-0.79888-3.9858-6.5-2.7501-6.3383 1.3738-6.4129 1.3116-3-2.4986 4.677-5.2214 4.4145-7.1522-0.7497-5.5132-2.6693 0.84722-4.8794 0.33954-5.9431-1.3652-2.1532-3.451-7.9447-0.27984-10.756 5.8893-1.0716 2.3518-3.0804 4.5282-4.4642 4.8364-3.4708 0.77298 12.848 17.562 17.063 17.555 1.8423-0.003 5.1496-2.7006 7.3496-5.9942zm-351.98-2.0303c0.69014-1.1167 4.3433-3.3207 8.118-4.8979 9.8293-4.107 9.3213-7.2145-1.6063-9.8257-6.7297-1.6081-13.53 4.2998-13.53 11.754 0 5.0425 4.5483 6.9669 7.0187 2.9697zm465.48-43.023c10.129-2.5413 6.0961 3.7723-6.0046 9.3993-40.655 18.905-54.495 25.811-54.495 27.192 0 3.3548 17.117-0.30006 26.037-5.5596 11.166-6.5839 24.85-12.773 32.438-14.672 6.5261-1.6331 10.73-7.5743 12.6-17.806 1.8421-10.08 2.0008-10.116-36.796 8.2782-59.706 28.308-64.261 30.632-63.249 32.27 0.55016 0.8902 19.668-7.2332 42.485-18.052s43.96-20.291 46.985-21.05zm-418.64 23.768c0.35618-5.6388-13.796-6.3049-18.705-0.88036-3.6996 4.088-1.9225 10.87 3.3265 12.695 2.9089 1.0113 15.163-8.4029 15.379-11.815zm345.41-8.714c11.798-8.25 29.615-19.373 39.594-24.717 28.338-15.177 48.739-25.283 51.039-25.283 1.1573 0 2.1041-0.9 2.1041-2 0-5.2115-16.506 1.4782-50 20.265-17.495 9.8127-68 44.176-68 46.267 0 2.8319 2.4355 1.431 25.263-14.532zm19.606-22.558c8.7281-5.4625 20.019-12.746 25.09-16.187 10.372-7.0355 13.027-8.595 27.701-16.268 5.7052-2.9832 10.87-6.2284 11.478-7.2115 2.3065-3.7321-6.715-0.3656-20.833 7.7741-8.0614 4.6478-15.05 8.4505-15.53 8.4505-1.6952 0-27.802 16.674-29.775 19.017-1.1 1.3062-12.58 8.8902-25.51 16.853-12.931 7.9631-23.015 15.28-22.409 16.261 0.60588 0.98036 8.4856-2.839 17.51-8.4875l32.278-20.202zm-63.252 13.071c0.86546-5.8558 20.36-24.949 24.033-23.539 1.7526 0.67254 8.8214-3.7133 17.608-10.925 8.0738-6.6265 15.212-12.048 15.862-12.048 1.9505 0 28.406-15.812 31.304-18.71 1.4776-1.4776 6.0367-3.7923 10.131-5.1436 4.0946-1.3513 7.4447-3.2872 7.4447-4.3019 0-2.9099-5.2562-2.151-8 1.1551-1.3694 1.65-3.1549 3-3.9679 3-0.81296 0-8.0274 3.6-16.032 8-8.0047 4.4-15.4 8-16.434 8-1.0341 0-8.7845 5.5596-17.223 12.355-20.989 16.902-21.473 17.246-19.418 13.836 2.1278-3.5305-1.9448-1.3785-8.4172 4.4478-2.4707 2.224-4.9668 3.5689-5.5471 2.9887-1.4733-1.4733 1.0954-7.6275 3.1836-7.6275 0.94404 0 4.7916-2.7 8.5501-6s7.5299-6 8.3808-6c0.85096 0 4.7821-2.4734 8.736-5.4964 3.9538-3.023 11.239-7.547 16.189-10.053 12.604-6.3817 17.412-9.2979 21.644-13.128 2.0192-1.8273 4.9504-3.3935 6.5138-3.4803s1.8785-0.55818 0.70026-1.0474c-3.4438-1.43-14.21 3.9646-34.858 17.466-10.628 6.9497-20.331 12.827-39.767 24.09-7.7782 4.5072-9.2435 6.3209-9.3005 11.512-0.0476 4.3347-1.9752 7.9044-6.5 12.037-7.3222 6.6878-7.9018 9.0474-2.9323 11.937 4.7407 2.7562 7.378 1.6762 8.117-3.3241zm58.883-21.358c18.425-10.732 33.5-20.265 33.5-21.186 0-0.92064 4.9674-4.1042 11.039-7.0747 9.7684-4.7792 15.346-8.8934 12.058-8.8934-2.9528 0-21.261 9.5178-31.486 16.369-6.2646 4.1972-12.34 7.6313-13.5 7.6313-1.1604 0-2.1097 0.69312-2.1097 1.5403 0 0.84716-12.133 8.6111-26.962 17.253-14.829 8.6421-26.446 16.548-25.815 17.568 0.65688 1.0628 2.9899 0.66974 5.4615-0.92026 2.3731-1.5266 19.39-11.556 37.815-22.288zm-28.786 7.4881c34.331-23.778 43.196-29.685 48.286-32.171 2.75-1.3432 6.7777-3.5737 8.9506-4.9567 17.497-11.137 17.957-11.514 14.014-11.506-2.1803 0.004-8.9143 3.1203-14.964 6.9239-6.05 3.8036-13.7 8.1635-17 9.6886-3.3 1.5252-8.7 5.0017-12 7.7256s-15.675 11.581-27.5 19.683c-18.873 12.931-24.562 17.97-20.286 17.97 0.66768 0 9.8927-6.011 20.5-13.358zm-20.022-56.642c6.464-6.464 16.308-8.2748 16.308-3 0 4.0843 5.2613 3.7008 15.99-1.1656l8.9902-4.0777-4.5877-3.4605c-8.5848-6.4756-4.1273-9.9492 16.393-12.775 7.0203-0.96668 12.244-10.374 8.6281-15.537l-3.0812-4.3991-0.6663 4.7076c-0.4669 3.2988-1.7689 4.519-4.3507 4.0776-2.0264-0.34651-4.7977 0.89244-6.1583 2.7532-3.5091 4.799-11.922 0.43795-10.119-5.245 1.8611-5.8637-2.3489-4.6492-7.3549 2.1218-4.5535 6.1589-9.6838 7.986-9.6838 3.4489 0-1.4031 4.5186-6.9345 10.041-12.292 5.5227-5.3575 9.5634-10.219 8.9791-10.803-0.5842-0.58421-3.5667 1.3373-6.6278 4.27-5.551 5.3182-14.393 3.6194-14.393-2.7654 0-2.53 12.046-13.441 16.5-14.946 1.925-0.65023 3.5-2.5751 3.5-4.2775 0-2.7903-0.46366-2.7914-4.7057-0.012-4.8237 3.1606-29.561 12.397-40.294 15.045-4.3511 1.0734-6.1763 2.834-6.6415 6.4062-0.80104 6.1512-5.3291 9.8207-10.462 8.4784-2.1547-0.56348-5.1488-0.003-6.6536 1.246-1.5047 1.2488-4.2067 1.7061-6.0044 1.0163-11.133-4.2721-23.112 5.901-13.197 11.207 4.7385 2.536 8.6902 0.76903 7.1656-3.204-1.4305-3.7278 7.2183-5.8016 12.471-2.9903 2.228 1.1924 4.6224 3.9689 5.3211 6.1701 0.69862 2.2012 2.2146 4.0022 3.3687 4.0022 1.1542 0 1.6666 1.6517 1.1387 3.6704-0.7744 2.9613-0.038 3.4942 3.8111 2.7584 3.3514-0.64067 4.1971-1.6035 2.8423-3.2359-4.2376-5.106-6.2117-13.193-3.2206-13.193 3.9649 0 19.061 21.642 19.061 27.326 0 6.4161-3.074 5.8593-7.3181-1.3256-3.6285-6.1426-7.4254-7.651-9.7581-3.8766-0.72178 1.1678-3.4749 2.9456-6.118 3.9505s-4.8057 2.8529-4.8057 4.1067c0 1.4403 1.8409 1.0733 5-0.9966 5.2808-3.4601 6.8125-1.1455 3.1123 4.7029-1.3125 2.0745-0.6004 3.567 2.5306 5.3039 6.6663 3.6981 8.5627 3.296 15.049-3.1907zm10.308-16.143c0-1.1786-1.35-3.4928-3-5.1428-4.044-4.044-3.7797-6.7143 0.66444-6.7143 2.4454 0 4.3791 2.3287 5.8128 7 1.7494 5.7002 1.6261 7-0.66444 7-1.547 0-2.8128-0.96428-2.8128-2.1429zm-14.872-23.015c-1.8468-1.8468-2.856-4.6653-2.2428-6.2635 0.61326-1.5981 1.115-3.2821 1.115-3.7421 0-0.46004 2.757-0.83643 6.1267-0.83643 5.7046 0 6.0835 0.44674 5.5 6.4836-0.72524 7.5028-5.4099 9.4475-10.499 4.3584zm77.755 26.094c2.7365-2.0698 3.0316-2.9176 1-2.8728-1.5852 0.035-4.6293 1.385-6.7645 3-2.7365 2.0698-3.0316 2.9176-1 2.8728 1.5852-0.035 4.6293-1.385 6.7645-3zm7.9519-12.865c9.8697-4.2307 10.385-5.2073 6.8448-12.977-2.8709-6.3009-6.1493-6.6681-5.3047-0.59411 1.1115 7.9939-4.8872 4.9612-7.8666-3.977-3.6286-10.886-24.787-24.911-29.887-19.811-2.8908 2.8908 2.8671 8.2093 10.565 9.7587 12.786 2.5735 20.61 20.933 12.414 29.129-3.7732 3.7732 2.576 3.0397 13.234-1.5289zm-99.56-44.29c1.4922-1.2384 2.7132-3.1058 2.7132-4.1496s5.85-7.7191 13-14.834c8.4546-8.4131 13-14.539 13-17.519 0-2.8417 1.8998-5.5998 5-7.259 2.75-1.4718 5-3.4719 5-4.4448 0-2.8971 10.812-15.555 13.286-15.555 1.2573-0.00004 2.7619-1.2401 3.3435-2.7557 0.58158-1.5156 5.759-5.7906 11.505-9.5 9.8736-6.3736 10.153-6.7795 5.0885-7.3838-6.626-0.79052-22.983 5.091-27.801 9.9968-1.9678 2.0034-4.8928 3.6426-6.5 3.6426-1.6071 0-2.9221 0.82659-2.9221 1.8369s-3.0589 3.7274-6.7976 6.038c-7.3324 4.5317-15.202 18.631-15.202 27.235 0 10.051-8.8711 20.758-17.271 20.846-4.4064 0.0459-36.184 10.833-38.379 13.028-4.7065 4.7065 37.286 5.468 42.937 0.77861zm88.915-25.927c3.7391-1.1907 8.5984-2.9443 10.798-3.8969 2.2-0.95262 5.8-2.1812 8-2.7302s-1.85-0.49144-9 0.1279c-7.15 0.61935-13.3 1.9221-13.667 2.8951-0.36668 0.97295-2.7886 1.769-5.382 1.769s-5.2715 0.9-5.9514 2c-1.636 2.6471 6.6532 2.5572 15.202-0.16486zm8.5859-11.823c1.1069-1.1069 4.5326-2.0126 7.6126-2.0126s5.6-0.9 5.6-2c0-4.0698-11.741-1.7604-35.627 7.0075-1.4447 0.53033-2.1442 1.7451-1.5543 2.6995 1.2364 2.0005 20.959-2.6853 23.969-5.6944zm-29.161-8.0126c2.0676 0 6.5138-1.3742 9.8805-3.0537s10.705-4.1425 16.307-5.4733c13.25-3.1475 13.796-7.3252 0.68602-5.2574-21.125 3.3321-52.5 15.094-52.5 19.681 0 3.7854 3.2856 3.5193 12.177-0.98643 5.3295-2.7006 11.382-4.9103 13.449-4.9103zm-0.52624-11.831c1.045-1.0069 4.15-2.2343 6.9-2.7276 3.302-0.59237 2.1966-0.98948-3.2551-1.1694-5.1786-0.17086-9.183 0.84567-10.745 2.7276-2.8754 3.4646 3.6093 4.5326 7.1 1.1694zm-125.1 490.56c-12.609-5.987-18-10.192-18-14.04 0-4.4243 5.6365-3.0947 18.271 4.31 6.569 3.85 12.699 7 13.623 7 2.1666 0 4.1974 5.2428 2.6357 6.8045-2.0719 2.0719-5.2165 1.2966-16.529-4.0747z"/>
</svg>
